# xmcd CD database file
#
# Track frame offsets:
#	150
#	19535
#	44412
#	57202
#	85332
#	115057
#	143917
#	163207
#	199500
#
# Disc length: 2919 seconds
#
# Revision: 0
# Processed by: cddbd v1.5.2PL0 Copyright (c) Steve Scherf et al.
# Submitted via: CDex 1.51
#
DISCID=730b6509
DTITLE=Holly and the Blues Corp. - Made in Toronto
DYEAR=1994
DGENRE=Blues
TTITLE0=Coming Home
TTITLE1=What Do You Want From Me
TTITLE2=Take Some Chances
TTITLE3=Just For You
TTITLE4=Stay Out
TTITLE5=Berlin, Berlin
TTITLE6=When I Find That Woman
TTITLE7=I Cry
TTITLE8=Brother
EXTD=YEAR: 1994
EXTT0=
EXTT1=
EXTT2=
EXTT3=
EXTT4=
EXTT5=
EXTT6=
EXTT7=
EXTT8=
PLAYORDER=
